<?xml version="1.0" standalone="no"?>
<!DOCTYPE svg PUBLIC "-//W3C//DTD SVG 20010904//EN"
 "http://www.w3.org/TR/2001/REC-SVG-20010904/DTD/svg10.dtd">
<svg version="1.0" xmlns="http://www.w3.org/2000/svg"
 width="600.000000pt" height="360.000000pt" viewBox="0 0 600.000000 360.000000"
 preserveAspectRatio="xMidYMid meet">

<g transform="translate(0.000000,360.000000) scale(0.100000,-0.100000)"
fill="#000000" stroke="none">
<path d="M1083 2228 c14 -18 145 -204 292 -413 147 -209 283 -397 303 -417 44
-47 87 -61 162 -56 43 3 69 12 100 33 48 33 215 259 204 277 -4 6 -3 8 4 4 6
-3 102 120 230 299 l221 305 -168 0 -167 0 -127 -180 c-72 -101 -125 -186
-121 -192 4 -6 3 -8 -3 -5 -14 9 -76 -80 -67 -95 4 -6 3 -8 -3 -5 -12 8 -56
-50 -48 -63 4 -6 1 -9 -7 -8 -7 2 -13 -1 -12 -7 0 -5 -11 -22 -25 -37 l-26
-27 -206 307 -206 307 -177 3 -177 2 24 -32z"/>
<path d="M3240 1990 c0 -148 -2 -270 -5 -270 -2 0 -84 70 -181 155 -97 85
-181 152 -187 148 -6 -3 -7 -2 -4 4 3 5 -35 45 -85 88 l-91 79 -19 -24 c-10
-13 -75 -101 -144 -196 l-125 -173 -2 -231 -2 -230 128 0 127 0 0 270 c0 149
2 270 5 270 3 0 139 -116 301 -257 163 -142 305 -263 317 -270 35 -19 117 -16
154 7 65 39 68 53 71 378 l3 293 497 -3 c455 -3 500 -5 533 -21 38 -19 59 -52
59 -93 0 -37 -16 -61 -53 -81 -29 -16 -77 -19 -472 -23 l-440 -5 -3 -232 -2
-233 140 0 140 0 0 120 0 120 224 0 224 0 103 -120 103 -120 189 0 189 0 -108
116 c-59 63 -125 129 -147 146 l-39 31 69 32 c122 56 181 157 171 294 -11 148
-113 248 -293 286 -58 12 -183 15 -707 15 l-638 0 0 -270z"/>
</g>
</svg>
